<svg xmlns="http://www.w3.org/2000/svg" width="64" height="64" fill="none" id="bank">
  <path fill="#2B3151" fill-rule="evenodd" d="M22 28c0-.736.597-1.334 1.333-1.334H32c.736 0 1.333.598 1.333 1.334v18.666c0 .737-.597 1.334-1.333 1.334h-8.667A1.333 1.333 0 0 1 22 46.666V28Zm2.667 1.333v16h6v-16h-6Z" clip-rule="evenodd"></path>
  <path fill="#445CDA" fill-rule="evenodd" d="M30.666 28c0-.736.598-1.334 1.334-1.334h8.666c.737 0 1.334.598 1.334 1.334v18.666c0 .737-.597 1.334-1.334 1.334H32a1.333 1.333 0 0 1-1.334-1.334V28Zm2.667 1.333v16h6v-16h-6Z" clip-rule="evenodd"></path>
  <path fill="#445CDA" fill-rule="evenodd" d="M39.333 28c0-.736.597-1.334 1.334-1.334h8.666c.737 0 1.334.598 1.334 1.334v18.666c0 .737-.597 1.334-1.334 1.334h-8.666a1.333 1.333 0 0 1-1.334-1.334V28zM42 29.333v16h6v-16h-6zM13.333 28c0-.736.597-1.334 1.334-1.334h8.666c.737 0 1.334.598 1.334 1.334v18.666c0 .737-.597 1.334-1.334 1.334h-8.666a1.333 1.333 0 0 1-1.334-1.334V28zM16 29.333v16h6v-16h-6z" clip-rule="evenodd"></path>
  <path fill="#2B3151" fill-rule="evenodd" d="M8 49.333a4 4 0 0 1 4-4h40a4 4 0 0 1 4 4V52a4 4 0 0 1-4 4H12a4 4 0 0 1-4-4v-2.667zM12 48c-.736 0-1.333.597-1.333 1.333V52c0 .736.597 1.333 1.333 1.333h40c.736 0 1.333-.597 1.333-1.333v-2.667c0-.736-.597-1.333-1.333-1.333H12zm20.225-37.153a1.334 1.334 0 0 0-.45 0c-.086.015-.182.044-.662.213L12.445 17.65c-.94.331-1.125.413-1.25.507-.22.167-.383.397-.467.66-.047.15-.062.35-.062 1.347V24c0 .64 0 1.052.022 1.368.02.304.056.42.08.476.134.326.394.586.72.721.056.023.172.059.476.08.316.02.729.022 1.368.022h37.334c.64 0 1.052-.001 1.368-.023.304-.02.42-.056.475-.079.327-.135.587-.395.722-.722.023-.055.058-.17.08-.475.02-.316.021-.729.021-1.368v-3.837c0-.996-.015-1.198-.062-1.347a1.333 1.333 0 0 0-.467-.66c-.125-.094-.31-.176-1.25-.507L32.888 11.06c-.48-.17-.577-.198-.663-.213zm-.9-2.628a4 4 0 0 1 1.35 0c.339.058.66.171 1.026.3.024.01.05.018.074.027l18.667 6.588.149.053c.704.247 1.32.464 1.82.842a4 4 0 0 1 1.4 1.979c.19.597.19 1.25.19 1.997l-.001.158v3.88c0 .584 0 1.09-.029 1.507-.03.44-.095.88-.275 1.314a4 4 0 0 1-2.165 2.165c-.435.18-.875.246-1.314.276-.418.028-.923.028-1.508.028H13.291c-.585 0-1.09 0-1.508-.028-.44-.03-.88-.096-1.314-.276a4 4 0 0 1-2.165-2.165c-.18-.435-.246-.875-.276-1.314A23.76 23.76 0 0 1 8 24.043v-4.038c-.001-.746-.002-1.4.188-1.997a4 4 0 0 1 1.4-1.98c.5-.377 1.117-.594 1.821-.841l.15-.053 18.666-6.588.074-.026c.366-.13.687-.243 1.026-.301z" clip-rule="evenodd"></path>
</svg>
