<svg xmlns="http://www.w3.org/2000/svg" width="64" height="64" fill="none" id="name-card">
  <path fill="#445CDA" fill-rule="evenodd" d="M22.666 26.667a3.333 3.333 0 1 0 0 6.666 3.333 3.333 0 0 0 0-6.666Zm-6 3.333a6 6 0 1 1 12 0 6 6 0 0 1-12 0Z" clip-rule="evenodd"></path>
  <path fill="#445CDA" fill-rule="evenodd" d="M22.666 37.334c-4.152 0-7.333 3.083-7.333 6.666a1.333 1.333 0 0 1-2.667 0c0-5.253 4.58-9.333 10-9.333s10 4.08 10 9.333A1.333 1.333 0 1 1 30 44c0-3.583-3.18-6.666-7.334-6.666zM37.334 26c0-.736.597-1.333 1.334-1.333H50a1.333 1.333 0 1 1 0 2.667H38.667A1.333 1.333 0 0 1 37.333 26zm0 17.867c0-.737.597-1.334 1.334-1.334H50a1.333 1.333 0 1 1 0 2.667H38.667a1.333 1.333 0 0 1-1.334-1.334zm0-8.933c0-.736.597-1.333 1.334-1.333H50a1.333 1.333 0 1 1 0 2.666H38.667a1.333 1.333 0 0 1-1.334-1.333z" clip-rule="evenodd"></path>
  <path fill="#2B3151" fill-rule="evenodd" d="M28 14a4 4 0 0 1 8 0v5.333a4 4 0 1 1-8 0V14Zm4-1.333c-.736 0-1.333.597-1.333 1.333v5.333a1.333 1.333 0 1 0 2.666 0V14c0-.736-.597-1.333-1.333-1.333Z" clip-rule="evenodd"></path>
  <path fill="#2B3151" fill-rule="evenodd" d="M28 16.667H12a6.667 6.667 0 0 0-6.667 6.667V46A6.667 6.667 0 0 0 12 52.667h40A6.667 6.667 0 0 0 58.667 46V23.334A6.667 6.667 0 0 0 52 16.667H36V18c0 .553 0 .983-.018 1.334H52a4 4 0 0 1 4 4V46a4 4 0 0 1-4 4H12a4 4 0 0 1-4-4V23.334a4 4 0 0 1 4-4h16.018C28 18.984 28 18.554 28 18v-1.333Z" clip-rule="evenodd"></path>
</svg>
