<svg xmlns="http://www.w3.org/2000/svg" width="64" height="64" fill="none" id="bill">
  <path fill="#2B3151" fill-rule="evenodd" d="M18.667 12a6.667 6.667 0 0 1 6.666-6.667h21.334A6.667 6.667 0 0 1 53.333 12v41.334a5.333 5.333 0 0 1-10.666 0v-4h2.666v4a2.667 2.667 0 1 0 5.334 0V12a4 4 0 0 0-4-4H25.333a4 4 0 0 0-4 4v37.334h-2.666V12Z" clip-rule="evenodd"></path>
  <path fill="#2B3151" fill-rule="evenodd" d="M10.667 49.333c0-.736.597-1.333 1.333-1.333h32a1.333 1.333 0 0 1 0 2.667H13.333V52a4 4 0 0 0 4 4H48v2.667H17.333A6.667 6.667 0 0 1 10.667 52v-2.667Z" clip-rule="evenodd"></path>
  <path fill="#445CDA" fill-rule="evenodd" d="M28 17.333c0-.736.597-1.333 1.333-1.333h13.334a1.333 1.333 0 0 1 0 2.667H29.333A1.333 1.333 0 0 1 28 17.333zM28 28c0-.736.597-1.334 1.333-1.334h13.334a1.333 1.333 0 0 1 0 2.667H29.333A1.333 1.333 0 0 1 28 28zm0 10.667c0-.736.597-1.334 1.333-1.334h13.334a1.333 1.333 0 0 1 0 2.667H29.333A1.333 1.333 0 0 1 28 38.667z" clip-rule="evenodd"></path>
</svg>
