<svg xmlns="http://www.w3.org/2000/svg" width="64" height="64" fill="none" id="coupon">
  <path fill="#2B3151" fill-rule="evenodd" d="M10.667 12a6.667 6.667 0 0 1 6.666-6.667h29.334A6.667 6.667 0 0 1 53.333 12v45.334a1.333 1.333 0 0 1-2.312.905l-3.789-4.097a.267.267 0 0 0-.387-.005l-2.831 2.904a2.933 2.933 0 0 1-4.28-.085l-2.516-2.794a.267.267 0 0 0-.389-.008l-2.815 2.887a2.933 2.933 0 0 1-4.28-.085l-2.516-2.794a.267.267 0 0 0-.389-.008l-2.815 2.887a2.933 2.933 0 0 1-4.28-.085l-2.5-2.778a.267.267 0 0 0-.392-.005l-3.875 4.079a1.333 1.333 0 0 1-2.3-.919V12Zm6.666-4a4 4 0 0 0-4 4v41.994l1.575-1.658a2.933 2.933 0 0 1 4.307.058l2.5 2.778a.267.267 0 0 0 .39.008l2.815-2.888a2.933 2.933 0 0 1 4.28.086l2.515 2.794a.267.267 0 0 0 .39.008l2.815-2.888a2.933 2.933 0 0 1 4.28.086l2.515 2.794a.267.267 0 0 0 .39.008l2.83-2.904a2.933 2.933 0 0 1 4.255.056l1.477 1.596V12a4 4 0 0 0-4-4H17.333Z" clip-rule="evenodd"></path>
  <path fill="#445CDA" fill-rule="evenodd" d="M42.276 20.391c.521.52.521 1.365 0 1.886L23.61 40.943a1.333 1.333 0 1 1-1.886-1.885L40.391 20.39c.52-.52 1.365-.52 1.885 0zm-17.743 4.143a1.333 1.333 0 1 0 0-2.667 1.333 1.333 0 0 0 0 2.666zm0 2.666a4 4 0 1 0 0-8 4 4 0 0 0 0 8zm14.934 12.267a1.333 1.333 0 1 0 0-2.666 1.333 1.333 0 0 0 0 2.666zm0 2.667a4 4 0 1 0 0-8 4 4 0 0 0 0 8z" clip-rule="evenodd"></path>
</svg>
