<svg xmlns="http://www.w3.org/2000/svg" width="64" height="64" fill="none" id="wallet">
  <path fill="#2B3151" fill-rule="evenodd" d="M8.667 16.666v26.667c0 1.26 0 2.14.047 2.827.046.676.133 1.07.257 1.37a4 4 0 0 0 2.165 2.165c.3.124.694.21 1.37.257.688.047 1.567.047 2.827.047h32c1.261 0 2.14 0 2.828-.047.676-.046 1.07-.133 1.37-.257a4 4 0 0 0 2.165-2.165c.124-.3.21-.694.256-1.37.047-.688.048-1.567.048-2.827V29.999c0-1.26 0-2.14-.048-2.827-.046-.676-.132-1.07-.256-1.37a4 4 0 0 0-2.165-2.165c-.3-.124-.694-.21-1.37-.257-.688-.047-1.567-.047-2.828-.047h-16v-2.667h16.048c1.202 0 2.172 0 2.961.054.812.055 1.53.172 2.21.454a6.666 6.666 0 0 1 3.607 3.608c.282.68.398 1.397.454 2.208.054.79.054 1.76.054 2.962V43.38c0 1.202 0 2.172-.054 2.962-.056.811-.172 1.529-.454 2.209a6.667 6.667 0 0 1-3.608 3.607c-.68.282-1.397.399-2.209.454-.79.054-1.759.054-2.961.054H15.286c-1.202 0-2.172 0-2.962-.054-.811-.055-1.529-.172-2.209-.454a6.667 6.667 0 0 1-3.608-3.607c-.281-.68-.398-1.398-.453-2.21C6 45.553 6 44.583 6 43.38V16.666h2.667Z" clip-rule="evenodd"></path>
  <path fill="#2B3151" fill-rule="evenodd" d="M12 14a3.333 3.333 0 0 0 0 6.666h34V18a4 4 0 0 0-4-4H12Zm-6 3.333a6 6 0 0 1 6-6h30A6.667 6.667 0 0 1 48.667 18v5.333H12a6 6 0 0 1-6-6Z" clip-rule="evenodd"></path>
  <path fill="#445CDA" d="M50 36.666a1.333 1.333 0 1 1-2.667 0 1.333 1.333 0 0 1 2.667 0Z"></path>
  <path fill="#445CDA" fill-rule="evenodd" d="M54 34h-5.333a2.667 2.667 0 1 0 0 5.333H54V34Zm-5.333-2.667a5.333 5.333 0 0 0 0 10.667h8V31.333h-8Z" clip-rule="evenodd"></path>
</svg>
