<svg xmlns="http://www.w3.org/2000/svg" width="64" height="64" fill="none" id="growth-chart">
  <path fill="#2B3151" fill-rule="evenodd" d="M17.286 8h29.428c1.202 0 2.172 0 2.962.054.811.055 1.529.172 2.209.453a6.667 6.667 0 0 1 3.608 3.608c.281.68.398 1.398.453 2.21.054.789.054 1.759.054 2.961v29.428c0 1.202 0 2.172-.054 2.962-.055.811-.172 1.529-.453 2.209a6.666 6.666 0 0 1-3.608 3.608c-.68.281-1.398.398-2.21.453-.789.054-1.759.054-2.961.054H17.286c-1.202 0-2.172 0-2.962-.054-.811-.055-1.529-.172-2.209-.453a6.667 6.667 0 0 1-3.608-3.608c-.281-.68-.398-1.398-.453-2.21C8 48.887 8 47.917 8 46.715V17.286c0-1.202 0-2.172.054-2.962.055-.811.172-1.529.453-2.209a6.667 6.667 0 0 1 3.608-3.608c.68-.281 1.398-.398 2.21-.453C15.113 8 16.083 8 17.285 8Zm-2.78 2.714c-.676.046-1.07.133-1.37.257a4 4 0 0 0-2.165 2.165c-.124.3-.21.694-.257 1.37-.047.688-.047 1.567-.047 2.827v29.334c0 1.26 0 2.14.047 2.827.046.676.133 1.07.257 1.37a4 4 0 0 0 2.165 2.165c.3.124.694.21 1.37.257.688.047 1.567.047 2.827.047h29.334c1.26 0 2.14 0 2.827-.047.676-.046 1.07-.133 1.37-.257a4 4 0 0 0 2.165-2.165c.124-.3.21-.694.257-1.37.047-.688.047-1.567.047-2.827V17.333c0-1.26 0-2.14-.047-2.827-.046-.676-.133-1.07-.257-1.37a4 4 0 0 0-2.165-2.165c-.3-.124-.694-.21-1.37-.257-.688-.047-1.567-.047-2.827-.047H17.333c-1.26 0-2.14 0-2.827.047Z" clip-rule="evenodd"></path>
  <path fill="#445CDA" fill-rule="evenodd" d="M20 48.001c.736 0 1.333-.597 1.333-1.333v-5.334a1.333 1.333 0 0 0-2.666 0v5.334c0 .736.596 1.333 1.333 1.333zm12 0c.736 0 1.333-.597 1.333-1.333V36a1.333 1.333 0 0 0-2.666 0v10.667c0 .736.596 1.333 1.333 1.333zm12 0c.736 0 1.333-.597 1.333-1.333v-16a1.333 1.333 0 0 0-2.666 0v16c0 .736.596 1.333 1.333 1.333zm-.455-29.938c.554.485.61 1.328.125 1.882C34.56 30.357 25.406 33.36 21.055 34.789c-.224.074-.435.143-.633.21a1.333 1.333 0 0 1-.844-2.53c.199-.067.41-.136.633-.209 4.232-1.389 12.821-4.207 21.452-14.071a1.333 1.333 0 0 1 1.882-.126z" clip-rule="evenodd"></path>
  <path fill="#445CDA" fill-rule="evenodd" d="M43.849 16.365c.653.27 1.173.79 1.443 1.443.13.312.17.613.187.867.016.232.016.505.016.785v3.692a1.333 1.333 0 0 1-2.666 0v-3.657a10.824 10.824 0 0 0-.011-.655l-.017-.002c-.13-.009-.31-.01-.64-.01h-3.656a1.333 1.333 0 1 1 0-2.666h3.692c.28 0 .553 0 .785.016.254.017.555.058.867.187Z" clip-rule="evenodd"></path>
</svg>
