<svg xmlns="http://www.w3.org/2000/svg" width="64" height="64" fill="none" id="insurance">
  <path fill="#445CDA" fill-rule="evenodd" d="M32 23.6a5.086 5.086 0 1 0 0 10.172A5.086 5.086 0 0 0 32 23.6Zm-7.753 5.086a7.753 7.753 0 1 1 15.506 0 7.753 7.753 0 0 1-15.506 0Z" clip-rule="evenodd"></path>
  <path fill="#2B3151" fill-rule="evenodd" d="M32 37.012c-6.173 0-11.333 5.852-11.333 11.788a1.333 1.333 0 0 1-2.667 0c0-7.231 6.182-14.455 14-14.455S46 41.57 46 48.8a1.333 1.333 0 0 1-2.667 0c0-5.936-5.16-11.788-11.333-11.788Z" clip-rule="evenodd"></path>
  <path fill="#2B3151" fill-rule="evenodd" d="M33.808 8.411a4 4 0 0 0-3.616 0l-14.267 7.23c-1.158.586-1.933 1.68-2.064 2.922-.456 4.314-1.047 12.817.316 19.645.682 3.416 3.373 6.92 6.691 10.044 3.278 3.085 6.975 5.621 9.353 7.125a3.333 3.333 0 0 0 3.576.013c2.4-1.495 6.137-4.025 9.425-7.11 3.332-3.124 5.995-6.626 6.595-10.042 1.354-7.705.791-15.702.342-19.732-.135-1.205-.895-2.263-2.034-2.84L33.808 8.41Zm-4.821-2.379a6.667 6.667 0 0 1 6.026 0l14.318 7.255c1.883.954 3.237 2.762 3.478 4.924.46 4.122 1.054 12.413-.365 20.488-.757 4.307-3.972 8.314-7.398 11.527-3.469 3.253-7.368 5.888-9.84 7.427a6 6 0 0 1-6.41-.022c-2.447-1.548-6.303-4.188-9.755-7.437-3.412-3.211-6.628-7.199-7.479-11.464-1.447-7.252-.812-16.1-.353-20.447.231-2.19 1.59-4.049 3.51-5.021l14.268-7.23Z" clip-rule="evenodd"></path>
</svg>
