<svg xmlns="http://www.w3.org/2000/svg" width="64" height="64" fill="none" id="locker">
  <path fill="#445CDA" fill-rule="evenodd" d="M13.333 21.333c0-.736.597-1.333 1.334-1.333h4a1.333 1.333 0 0 1 0 2.667h-4a1.333 1.333 0 0 1-1.334-1.334zm0 21.333c0-.736.597-1.333 1.334-1.333h4a1.333 1.333 0 0 1 0 2.667h-4a1.333 1.333 0 0 1-1.334-1.334z" clip-rule="evenodd"></path>
  <path fill="#2B3151" fill-rule="evenodd" d="M17.286 8h29.428c1.202 0 2.172 0 2.962.054.811.055 1.529.172 2.209.453a6.667 6.667 0 0 1 3.608 3.608c.281.68.398 1.398.453 2.21.054.789.054 1.759.054 2.961v29.428c0 1.202 0 2.172-.054 2.962-.055.811-.172 1.529-.453 2.209a6.666 6.666 0 0 1-3.608 3.608c-.68.281-1.398.398-2.21.453-.789.054-1.759.054-2.961.054H17.286c-1.202 0-2.172 0-2.962-.054-.811-.055-1.529-.172-2.209-.453a6.667 6.667 0 0 1-3.608-3.608c-.281-.68-.398-1.398-.453-2.21C8 48.887 8 47.917 8 46.715V17.286c0-1.202 0-2.172.054-2.962.055-.811.172-1.529.453-2.209a6.667 6.667 0 0 1 3.608-3.608c.68-.281 1.398-.398 2.21-.453C15.113 8 16.083 8 17.285 8Zm-2.78 2.714c-.676.046-1.07.133-1.37.257a4 4 0 0 0-2.165 2.165c-.124.3-.21.694-.257 1.37-.047.688-.047 1.567-.047 2.827v29.334c0 1.26 0 2.14.047 2.827.046.676.133 1.07.257 1.37a4 4 0 0 0 2.165 2.165c.3.124.694.21 1.37.257.688.047 1.567.047 2.827.047h29.334c1.26 0 2.14 0 2.827-.047.676-.046 1.07-.133 1.37-.257a4 4 0 0 0 2.165-2.165c.124-.3.21-.694.257-1.37.047-.688.047-1.567.047-2.827V17.333c0-1.26 0-2.14-.047-2.827-.046-.676-.133-1.07-.257-1.37a4 4 0 0 0-2.165-2.165c-.3-.124-.694-.21-1.37-.257-.688-.047-1.567-.047-2.827-.047H17.333c-1.26 0-2.14 0-2.827.047Z" clip-rule="evenodd"></path>
  <path fill="#2B3151" fill-rule="evenodd" d="M17.26 13.333H46.74c.566 0 1.115 0 1.568.06.511.07 1.094.237 1.579.721.484.484.651 1.067.72 1.578.061.454.06 1.003.06 1.569v29.478c0 .565.001 1.115-.06 1.568-.069.511-.236 1.094-.72 1.578-.485.485-1.068.652-1.579.72-.453.062-1.002.062-1.568.061H17.261c-.566 0-1.115 0-1.568-.06-.511-.069-1.094-.236-1.579-.72-.484-.485-.651-1.068-.72-1.579-.06-.453-.06-1.003-.06-1.568V17.26c0-.566 0-1.115.06-1.569.069-.51.236-1.094.72-1.578.485-.484 1.068-.652 1.579-.72.453-.061 1.002-.061 1.568-.061Zm-1.222 2.705-.001.01c-.034.253-.037.619-.037 1.285v29.333c0 .667.003 1.032.037 1.286l.001.01h.01c.254.035.62.038 1.285.038h29.334c.666 0 1.032-.003 1.285-.037l.01-.002.001-.01c.034-.253.037-.618.037-1.285V17.333c0-.666-.003-1.032-.037-1.285l-.001-.01-.01-.001c-.253-.034-.619-.037-1.285-.037H17.333c-.666 0-1.031.003-1.285.037l-.01.001Z" clip-rule="evenodd"></path>
  <path fill="#445CDA" fill-rule="evenodd" d="M36.44 24c.737 0 1.334.597 1.334 1.333v2.895c.468.165.896.415 1.266.732l2.507-1.448a1.333 1.333 0 1 1 1.334 2.31l-2.507 1.447a4.023 4.023 0 0 1 0 1.462l2.507 1.448a1.333 1.333 0 0 1-1.334 2.309L39.04 35.04c-.37.317-.798.567-1.266.732v2.895a1.333 1.333 0 0 1-2.667 0v-2.895a3.996 3.996 0 0 1-1.266-.732l-2.507 1.448A1.333 1.333 0 1 1 30 34.178l2.507-1.447a4.023 4.023 0 0 1 0-1.462L30 29.82a1.333 1.333 0 1 1 1.334-2.309l2.507 1.448c.37-.317.798-.567 1.266-.732v-2.895c0-.736.597-1.333 1.333-1.333Zm0 10a2 2 0 1 0 0-4 2 2 0 0 0 0 4Z" clip-rule="evenodd"></path>
</svg>
